<?xml version="1.0" standalone="no"?>
<!DOCTYPE svg PUBLIC "-//W3C//DTD SVG 20010904//EN"
 "http://www.w3.org/TR/2001/REC-SVG-20010904/DTD/svg10.dtd">
<svg version="1.0" xmlns="http://www.w3.org/2000/svg"
 width="600.000000pt" height="600.000000pt" viewBox="0 0 600.000000 600.000000"
 preserveAspectRatio="xMidYMid meet">
<metadata>
Created by potrace 1.11, written by Peter Selinger 2001-2013
</metadata>
<g transform="translate(0.000000,600.000000) scale(0.100000,-0.100000)"
fill="#000000" stroke="none">
<path d="M2990 5993 c0 -8 -11 -67 -64 -358 -14 -77 -33 -180 -42 -230 -8 -49
-22 -121 -29 -160 -8 -38 -21 -113 -30 -165 -9 -52 -23 -127 -31 -167 l-15
-71 -72 -12 c-274 -44 -544 -155 -779 -320 -122 -84 -354 -316 -438 -438 -164
-234 -276 -507 -320 -780 -7 -40 -17 -75 -24 -77 -10 -4 -535 -100 -991 -182
-82 -15 -152 -28 -154 -30 -10 -7 11 -13 114 -32 61 -11 173 -31 250 -45 77
-14 181 -33 230 -42 50 -8 122 -22 160 -29 39 -8 113 -21 165 -30 52 -9 127
-23 167 -31 l71 -15 12 -72 c47 -293 170 -581 347 -816 284 -376 708 -637
1164 -716 52 -9 97 -19 100 -23 6 -6 70 -353 186 -997 15 -82 28 -152 30 -154
7 -10 13 11 32 114 11 61 31 173 45 250 14 77 33 181 42 230 8 50 22 122 29
160 8 39 21 113 30 165 22 131 45 240 51 240 28 0 209 38 284 59 293 85 546
232 770 448 300 288 481 633 550 1041 7 40 17 75 24 77 10 4 535 100 991 182
83 15 152 28 154 30 10 7 -11 13 -114 32 -61 11 -173 31 -250 45 -77 14 -180
33 -230 42 -49 8 -121 22 -160 29 -38 8 -113 21 -165 30 -52 9 -127 23 -166
31 l-72 15 -12 67 c-38 222 -95 390 -195 579 -96 182 -199 316 -362 474 -262
252 -599 423 -956 484 -51 9 -95 19 -98 23 -6 6 -55 272 -186 994 -15 87 -31
158 -35 158 -5 0 -8 -3 -8 -7z m-304 -1675 c-3 -13 -12 -66 -21 -118 -9 -52
-25 -138 -35 -190 -10 -52 -26 -140 -35 -195 -10 -55 -19 -106 -21 -113 -2 -9
-23 -3 -71 21 -38 19 -88 44 -113 55 -25 11 -106 50 -180 86 -73 36 -135 64
-137 62 -2 -2 21 -54 51 -117 29 -63 83 -175 119 -250 l64 -135 -126 -23 c-69
-12 -213 -39 -319 -58 -106 -20 -195 -33 -198 -30 -10 9 54 193 99 287 130
270 376 515 642 641 70 32 248 97 273 98 8 1 11 -7 8 -21z m735 -9 c114 -38
268 -113 369 -182 171 -117 360 -341 450 -532 37 -80 106 -273 99 -280 -4 -3
-54 4 -214 34 -60 11 -177 32 -260 46 -82 15 -155 29 -162 31 -8 2 18 67 73
181 147 304 153 318 150 321 -2 1 -54 -22 -117 -52 -63 -29 -175 -83 -250
-119 l-135 -64 -23 126 c-12 69 -38 209 -57 309 -37 198 -38 212 -26 212 5 0
51 -14 103 -31z m-1621 -1644 c52 -9 138 -25 190 -35 52 -10 140 -26 195 -35
55 -10 105 -19 112 -21 8 -2 -19 -67 -73 -181 -147 -304 -153 -318 -150 -321
2 -1 54 22 117 52 63 29 175 83 250 119 l135 64 23 -126 c12 -69 39 -213 58
-319 20 -106 33 -195 30 -198 -10 -11 -198 56 -299 106 -141 70 -239 141 -359
260 -159 159 -266 333 -338 549 -17 52 -31 98 -31 103 0 5 10 6 23 4 12 -3 65
-12 117 -21z m2540 17 c0 -5 -14 -51 -31 -103 -74 -220 -177 -388 -338 -549
-120 -119 -211 -185 -356 -258 -91 -45 -291 -120 -300 -111 -4 5 9 82 79 459
13 74 26 146 28 160 2 14 8 24 13 23 9 -1 166 -76 395 -186 52 -26 96 -45 97
-43 2 2 -21 54 -51 117 -29 63 -83 175 -119 250 l-64 136 131 23 c72 13 208
38 301 56 182 35 215 39 215 26z"/>
</g>
</svg>
